<?xml version="1.0" encoding="utf-8"?>
<svg width="408.38135px" height="408.38123px" viewBox="0 0 408.38135 408.38123" version="1.1" xmlns:xlink="http://www.w3.org/1999/xlink" xmlns="http://www.w3.org/2000/svg">
  <g id="Group">
    <path d="M227.449 2.08127L113.209 22.2248Q109.897 22.8088 106.618 23.5546Q103.338 24.3004 100.099 25.2063Q96.8606 26.1121 93.6701 27.1757Q90.4796 28.2394 87.3452 29.4583Q84.2107 30.6772 81.1398 32.0485Q78.0689 33.4198 75.069 34.9401Q72.0691 36.4604 69.1474 38.126Q66.2257 39.7917 63.3893 41.5987Q60.5528 43.4057 57.8085 45.3497Q55.0641 47.2937 52.4185 49.37Q49.7728 51.4464 47.2322 53.65Q44.6916 55.8537 42.2622 58.1793Q39.8328 60.505 37.5204 62.947Q35.2081 65.3891 33.0183 67.9417Q30.8285 70.4942 28.7667 73.1512Q26.7048 75.8081 24.7758 78.5631Q22.8468 81.318 21.0553 84.1642Q19.2637 87.0105 17.614 89.9412Q15.9644 92.8719 14.4604 95.8801Q12.9565 98.8882 11.602 101.967Q10.2476 105.045 9.04574 108.186Q7.84392 111.327 6.79768 114.523Q5.75144 117.72 4.86329 120.963Q3.97514 124.207 3.24722 127.49Q2.5193 130.774 1.95337 134.089Q1.38744 137.404 0.984865 140.743Q0.582284 144.082 0.344024 147.437Q0.105764 150.791 0.0323967 154.154Q-0.0409702 157.516 0.0507334 160.878Q0.142437 164.24 0.39899 167.593Q0.655543 170.947 1.07633 174.283Q1.49711 177.62 2.08111 180.932L22.2246 295.172Q23.2136 300.781 24.6648 306.288Q26.1159 311.796 28.0192 317.164Q29.9224 322.532 32.2647 327.723Q34.6069 332.915 37.372 337.894C52.6777 291.083 58.7896 255.312 58.7896 255.312C58.7896 255.312 57.3013 296.992 44.3666 349.166Q44.9827 350.06 45.6129 350.943C72.2194 294.889 85.0977 247.891 85.0977 247.891C85.0977 247.891 77.85 300.834 53.7631 361.279Q53.8235 361.349 53.8841 361.418C92.81 304.961 106.19 250.591 106.19 250.591C106.19 250.591 103.38 304.572 71.4311 360.812C124.68 303.346 157.565 237.833 157.565 237.833L179.203 251.558C179.203 251.558 141.731 326.183 83.7887 387.089Q85.1258 387.936 86.4821 388.753Q87.8384 389.569 89.2133 390.354Q90.5881 391.139 91.9807 391.892Q93.3733 392.645 94.783 393.366Q96.1926 394.086 97.6185 394.774Q99.0445 395.462 100.486 396.117Q101.927 396.772 103.384 397.393Q104.84 398.014 106.31 398.602Q107.78 399.189 109.263 399.742Q110.747 400.296 112.242 400.814Q113.738 401.333 115.245 401.817Q116.753 402.302 118.271 402.751Q119.789 403.2 121.317 403.614Q122.845 404.028 124.382 404.407Q125.92 404.785 127.465 405.128Q129.011 405.471 130.564 405.778Q132.117 406.085 133.677 406.356Q135.236 406.628 136.802 406.863Q138.368 407.098 139.938 407.297Q141.509 407.495 143.084 407.658Q144.658 407.82 146.237 407.946Q147.815 408.072 149.395 408.162Q150.976 408.251 152.558 408.304Q154.141 408.357 155.724 408.374Q157.307 408.39 158.89 408.37Q160.473 408.35 162.055 408.293Q163.637 408.236 165.217 408.143Q166.798 408.05 168.376 407.92Q169.954 407.79 171.528 407.624Q173.102 407.457 174.673 407.255Q176.243 407.052 177.808 406.814Q179.373 406.575 180.932 406.3L295.172 386.156Q296.827 385.864 298.475 385.532Q300.124 385.199 301.763 384.826Q303.402 384.454 305.032 384.041Q306.662 383.628 308.281 383.175Q309.9 382.722 311.508 382.23Q313.116 381.737 314.711 381.205Q316.306 380.674 317.887 380.103Q319.469 379.532 321.036 378.923Q322.603 378.313 324.154 377.666Q325.706 377.018 327.241 376.333Q328.776 375.647 330.294 374.924Q331.812 374.201 333.312 373.441Q334.811 372.681 336.292 371.884Q337.773 371.088 339.233 370.255Q340.694 369.422 342.134 368.554Q343.573 367.686 344.991 366.782Q346.409 365.879 347.805 364.941Q349.2 364.003 350.572 363.031Q351.944 362.059 353.292 361.054Q354.64 360.049 355.962 359.011Q357.285 357.973 358.582 356.903Q359.878 355.833 361.149 354.731Q362.419 353.629 363.661 352.497Q364.904 351.364 366.119 350.202Q367.333 349.039 368.519 347.847Q369.704 346.655 370.86 345.434Q372.016 344.213 373.142 342.964Q374.268 341.715 375.362 340.439Q376.457 339.163 377.52 337.861Q378.583 336.558 379.614 335.23Q380.645 333.902 381.643 332.548Q382.641 331.195 383.605 329.818Q384.569 328.441 385.5 327.04Q386.43 325.64 387.326 324.217Q388.221 322.794 389.082 321.349Q389.942 319.905 390.767 318.44Q391.591 316.975 392.38 315.49Q393.168 314.005 393.92 312.501Q394.672 310.997 395.387 309.475Q396.102 307.953 396.779 306.414Q397.456 304.876 398.095 303.32Q398.734 301.765 399.335 300.195Q399.936 298.625 400.498 297.04Q401.06 295.456 401.583 293.858Q402.106 292.26 402.59 290.65Q403.073 289.039 403.517 287.418Q403.962 285.796 404.366 284.164Q404.77 282.532 405.134 280.891Q405.497 279.249 405.821 277.599Q406.144 275.949 406.427 274.292Q406.71 272.635 406.953 270.971Q407.195 269.307 407.396 267.638Q407.597 265.969 407.757 264.295Q407.918 262.621 408.037 260.944Q408.156 259.267 408.234 257.588Q408.312 255.908 408.348 254.227Q408.385 252.546 408.38 250.865Q408.376 249.184 408.33 247.503Q408.284 245.822 408.197 244.143Q408.11 242.464 407.982 240.788Q407.854 239.111 407.684 237.439Q407.515 235.766 407.304 234.098Q407.094 232.43 406.843 230.767Q406.592 229.105 406.3 227.449L386.156 113.209Q385.572 109.897 384.826 106.618Q384.081 103.339 383.175 100.1Q382.269 96.8608 381.205 93.6703Q380.142 90.4798 378.923 87.3453Q377.704 84.2108 376.332 81.14Q374.961 78.0691 373.441 75.0692Q371.921 72.0693 370.255 69.1476Q368.589 66.2259 366.782 63.3895Q364.975 60.553 363.031 57.8087Q361.087 55.0643 359.011 52.4186Q356.935 49.773 354.731 47.2324Q352.527 44.6918 350.202 42.2624Q347.876 39.833 345.434 37.5206Q342.992 35.2082 340.439 33.0185Q337.887 30.8287 335.23 28.7668Q332.573 26.705 329.818 24.776Q327.063 22.8469 324.217 21.0554Q321.37 19.2639 318.44 17.6142Q315.509 15.9645 312.501 14.4606Q309.493 12.9567 306.414 11.6022Q303.336 10.2477 300.195 9.04589Q297.054 7.84408 293.858 6.79784Q290.661 5.75159 287.418 4.86345Q284.174 3.9753 280.89 3.24738Q277.607 2.51946 274.292 1.95353Q270.977 1.3876 267.638 0.985023Q264.299 0.582443 260.944 0.344183Q257.589 0.105922 254.227 0.0325553Q250.865 -0.0408116 247.503 0.0508919Q244.141 0.142595 240.788 0.399148Q237.434 0.655701 234.098 1.07649Q230.761 1.49727 227.449 2.08127Z" id="Rectangle-3-Subtract" fill="#111111" fill-rule="evenodd" stroke="none" />
    <g fill="#1D1D1D" stroke="none" id="P" transform="translate(155.19043 85.79053)">
      <path d="M22.0337 242.409L22.0337 60.5854L83.4351 60.5854Q104.858 60.5854 118.469 68.2758Q132.08 75.9662 138.672 89.0277Q145.264 102.028 145.264 118.142Q145.264 134.194 138.733 147.316Q132.202 160.439 118.591 168.251Q105.042 176.003 83.8013 176.003L44.0063 176.003L44.0063 242.409L22.0337 242.409ZM44.0063 156.472L83.0688 156.472Q105.042 156.472 114.319 145.485Q123.596 134.438 123.596 118.142Q123.596 101.723 114.258 90.9198Q104.919 80.1166 82.7637 80.1166L44.0063 80.1166L44.0063 156.472Z" />
    </g>
    <path d="M296.546 149.206Q296.546 158.263 294.41 166.723Q292.359 175.097 286.207 184.582Q280.054 193.981 269.886 200.817Q259.803 207.653 242.286 212.182Q224.769 216.71 201.697 216.71Q191.187 216.71 177.515 215.685L177.515 279.43Q177.515 298.656 183.667 304.467Q189.82 310.192 210.413 310.876L210.413 317.541L112.403 317.541L112.403 310.876Q132.398 309.167 137.098 303.441Q141.883 297.631 141.883 275.5L141.883 123.998Q141.883 105.114 136.927 99.9014Q132.056 94.6035 112.403 92.4673L112.403 85.8023L204.859 85.8023Q220.582 85.8023 235.279 88.793Q249.976 91.7837 264.502 98.4488Q279.029 105.114 287.745 118.102Q296.546 131.005 296.546 149.206ZM177.515 110.668L177.515 201.671Q189.82 202.782 197.51 202.782Q258.35 202.782 258.35 151.256Q258.35 124.34 241.517 111.608Q224.769 98.7906 189.478 98.7906Q182.471 98.7906 179.993 101.269Q177.515 103.661 177.515 110.668Z" id="P-Union" fill="#FFFFFF" stroke="none" />
  </g>
</svg>