<?xml version="1.0" encoding="utf-8"?>
<svg width="1024px" height="1024px" viewBox="0 0 1024 1024" version="1.1" xmlns:xlink="http://www.w3.org/1999/xlink" xmlns="http://www.w3.org/2000/svg">
  <defs>
    <path d="M1024 0L1024 0L1024 1024L0 1024L0 0L1024 0Z" id="path_1" />
    <path d="M305.6 26.3871C382.597 -11.4656 473.397 -8.43636 547.7 34.464C554.724 38.5195 559.424 45.6503 560.381 53.7044L560.561 56.7396L560.561 132.877C560.561 132.916 560.561 132.954 560.561 132.993L560.561 467.385L560.51 469.134L560.407 470.394L560.15 471.964L559.481 474.793L559.069 476.053L557.938 478.703L557.114 480.246L556.548 481.172L554.902 483.461L553.024 485.571L551.481 487.011L549.192 488.735L546.748 490.175L543.507 491.616L540.729 492.439L538.749 492.799L535.919 493.107L534.839 493.107L534.801 493.105C530.258 493.159 525.704 492.012 521.634 489.661C488.411 470.48 451.166 461.308 414.096 462.145C380.202 462.969 346.502 472.161 316.198 489.661C312.622 491.725 308.674 492.862 304.687 493.071L304.687 493.052C299.69 493.381 294.617 492.251 290.132 489.661C228.887 454.296 153.773 452.858 91.2199 485.854L82.8086 490.485L80.1592 491.616L78.8988 492.028L76.0693 492.697L74.5003 492.954L71.4907 493.108L70.4104 493.108L67.5809 492.8L65.6003 492.44L62.8223 491.616L59.5812 490.176L57.1376 488.736L54.8483 487.012L53.305 485.572L51.4272 483.462L49.781 481.173L49.2151 480.247L48.392 478.704L47.2602 476.054L46.8486 474.794L46.1798 471.964L45.9226 470.395L45.8197 469.135L45.7683 467.386L45.7683 132.994C45.7683 131.574 45.8853 130.171 46.1125 128.797L46.1125 56.74C46.1125 47.5511 51.0149 39.0596 58.9731 34.4647C133.276 -8.4357 224.076 -11.4649 301.073 26.3878L303.336 27.5196L305.6 26.3878L305.6 26.3871L305.6 26.3871Z" id="path_2" />
    <clipPath id="clip_1">
      <use xlink:href="#path_1" />
    </clipPath>
    <clipPath id="mask_1">
      <use xlink:href="#path_2" />
    </clipPath>
  </defs>
  <g id="Icon Fore" clip-path="url(#clip_1)">
    <path d="M1024 0L1024 0L1024 1024L0 1024L0 0L1024 0Z" id="Icon-Fore" fill="none" stroke="none" />
    <g id="Group-4" transform="translate(204 234.00049)">
      <path d="M33.6248 98.8543C27.403 101.9 21.2619 105.169 15.2132 108.661C5.79921 114.096 0 124.141 0 135.011L0 530.572L0.0608584 532.641L0.182568 534.132L0.486846 535.988L1.27797 539.335L1.76481 540.826L3.10363 543.96L4.07733 545.786L4.74674 546.881L6.69411 549.59L8.91534 552.085L10.741 553.789L13.4491 555.827L16.3397 557.531L20.1736 559.235L23.4598 560.209L25.8028 560.635L29.1498 561L30.4278 561L33.9878 560.817L35.8439 560.513L39.191 559.722L40.6819 559.235L43.816 557.896L53.7659 552.419C127.761 513.387 216.616 515.088 289.064 556.923C298.478 562.358 310.077 562.358 319.492 556.923C394.807 513.439 487.599 513.439 562.914 556.923C572.328 562.358 583.927 562.357 593.341 556.922C602.756 551.486 608.555 541.442 608.555 530.572L608.555 135.011L608.342 131.42C607.21 121.893 601.65 113.457 593.341 108.66C587.65 105.374 581.877 102.286 576.032 99.3961L576.032 136.526C576.033 136.566 576.033 136.607 576.033 136.648L576.033 489.213L575.978 491.057L575.87 492.386L575.599 494.04L574.894 497.024L574.46 498.353L573.266 501.146L572.399 502.773L571.802 503.75L570.066 506.163L568.086 508.387L566.459 509.906L564.046 511.723L561.469 513.242L558.052 514.76L555.123 515.628L553.035 516.008L550.051 516.333L548.912 516.333L548.872 516.331C544.083 516.388 539.281 515.178 534.99 512.7C499.962 492.477 460.692 482.806 421.608 483.688C385.872 484.557 350.34 494.249 318.389 512.699C314.619 514.876 310.456 516.075 306.253 516.295L306.253 516.275C300.983 516.622 295.635 515.431 290.906 512.7C226.333 475.413 147.136 473.897 81.1837 508.686L72.3153 513.568L69.5219 514.761L68.193 515.195L65.2098 515.9L63.5554 516.172L60.3823 516.334L59.2433 516.334L56.26 516.009L54.1718 515.629L51.2427 514.761L47.8256 513.243L45.2491 511.724L42.8354 509.907L41.2082 508.388L39.2284 506.164L37.4927 503.75L36.8961 502.774L36.0282 501.147L34.8349 498.354L34.401 497.025L33.6958 494.041L33.4246 492.387L33.3162 491.058L33.2619 489.214L33.2619 136.648C33.2619 135.152 33.3853 133.673 33.6248 132.223L33.6248 98.8543Z" id="Shape-3-Subtract" fill="#FFFFFF" fill-rule="evenodd" stroke="#000000" stroke-width="0" stroke-linecap="round" stroke-linejoin="round" />
      <path d="M305.6 26.3871C382.597 -11.4656 473.397 -8.43636 547.7 34.464C554.724 38.5195 559.424 45.6503 560.381 53.7044L560.561 56.7396L560.561 132.877C560.561 132.916 560.561 132.954 560.561 132.993L560.561 467.385L560.51 469.134L560.407 470.394L560.15 471.964L559.481 474.793L559.069 476.053L557.938 478.703L557.114 480.246L556.548 481.172L554.902 483.461L553.024 485.571L551.481 487.011L549.192 488.735L546.748 490.175L543.507 491.616L540.729 492.439L538.749 492.799L535.919 493.107L534.839 493.107L534.801 493.105C530.258 493.159 525.704 492.012 521.634 489.661C488.411 470.48 451.166 461.308 414.096 462.145C380.202 462.969 346.502 472.161 316.198 489.661C312.622 491.725 308.674 492.862 304.687 493.071L304.687 493.052C299.69 493.381 294.617 492.251 290.132 489.661C228.887 454.296 153.773 452.858 91.2199 485.854L82.8086 490.485L80.1592 491.616L78.8988 492.028L76.0693 492.697L74.5003 492.954L71.4907 493.108L70.4104 493.108L67.5809 492.8L65.6003 492.44L62.8223 491.616L59.5812 490.176L57.1376 488.736L54.8483 487.012L53.305 485.572L51.4272 483.462L49.781 481.173L49.2151 480.247L48.392 478.704L47.2602 476.054L46.8486 474.794L46.1798 471.964L45.9226 470.395L45.8197 469.135L45.7683 467.386L45.7683 132.994C45.7683 131.574 45.8853 130.171 46.1125 128.797L46.1125 56.74C46.1125 47.5511 51.0149 39.0596 58.9731 34.4647C133.276 -8.4357 224.076 -11.4649 301.073 26.3878L303.336 27.5196L305.6 26.3878L305.6 26.3871L305.6 26.3871Z" id="Mask-2" fill="#FFFFFF" stroke="#000000" stroke-width="0" stroke-linecap="round" stroke-linejoin="round" />
    </g>
  </g>
</svg>