<?xml version="1.0" encoding="utf-8"?>
<svg width="1024px" height="1024px" viewBox="0 0 1024 1024" version="1.1" xmlns:xlink="http://www.w3.org/1999/xlink" xmlns="http://www.w3.org/2000/svg">
  <defs>
    <path d="M1024 0L1024 0L1024 1024L0 1024L0 0L1024 0Z" id="path_1" />
    <path d="M305.631 26.3898C382.636 -11.4668 473.446 -8.43723 547.756 34.4675C554.781 38.5234 559.481 45.655 560.438 53.7099L560.618 56.7455L560.618 132.891C560.618 132.93 560.619 132.968 560.619 133.007L560.619 467.433L560.567 469.182L560.464 470.443L560.207 472.012L559.538 474.842L559.126 476.102L557.995 478.752L557.171 480.295L556.605 481.221L554.959 483.511L553.081 485.62L551.538 487.061L549.248 488.785L546.804 490.225L543.563 491.666L540.784 492.489L538.804 492.849L535.974 493.158L534.893 493.158L534.856 493.156C530.312 493.21 525.758 492.062 521.687 489.712C488.461 470.529 451.212 461.355 414.138 462.192C380.241 463.016 346.538 472.21 316.23 489.711C312.654 491.775 308.705 492.912 304.718 493.122L304.718 493.102C299.72 493.432 294.647 492.302 290.161 489.712C228.91 454.342 153.788 452.905 91.2292 485.904L82.8171 490.535L80.1674 491.667L78.9069 492.078L76.0771 492.747L74.5079 493.004L71.498 493.159L70.4176 493.159L67.5878 492.85L65.607 492.49L62.8287 491.667L59.5873 490.226L57.1435 488.786L54.8539 487.062L53.3104 485.621L51.4325 483.512L49.7861 481.222L49.2201 480.296L48.3969 478.753L47.265 476.103L46.8534 474.842L46.1846 472.013L45.9273 470.443L45.8244 469.183L45.773 467.434L45.773 133.007C45.773 131.588 45.89 130.185 46.1172 128.81L46.1172 56.7458C46.1172 47.556 51.0201 39.0636 58.9792 34.4682C133.289 -8.43656 224.099 -11.4661 301.104 26.3905L303.367 27.5224L305.631 26.3905L305.631 26.3898L305.631 26.3898Z" id="path_2" />
    <clipPath id="clip_1">
      <use xlink:href="#path_1" />
    </clipPath>
    <clipPath id="mask_1">
      <use xlink:href="#path_2" />
    </clipPath>
  </defs>
  <g id="Icon Fore" clip-path="url(#clip_1)">
    <path d="M1024 0L1024 0L1024 1024L0 1024L0 0L1024 0Z" id="Icon-Fore" fill="none" stroke="none" />
    <g id="Group-5" transform="translate(204 234)">
      <path d="M33.6283 98.8644C27.4058 101.91 21.2641 105.179 15.2148 108.672C5.79981 114.108 0 124.154 0 135.025L0 530.626L0.0608646 532.696L0.182587 534.187L0.486895 536.043L1.2781 539.391L1.76499 540.882L3.10395 544.016L4.07774 545.842L4.74722 546.937L6.6948 549.646L8.91625 552.141L10.7421 553.845L13.4505 555.884L16.3414 557.588L20.1757 559.292L23.4622 560.266L25.8054 560.692L29.1528 561.057L30.4309 561.057L33.9913 560.875L35.8476 560.57L39.195 559.779L40.6861 559.292L43.8205 557.953L53.7714 552.476C127.774 513.44 216.638 515.14 289.093 556.979C298.509 562.415 310.109 562.415 319.524 556.979C394.847 513.492 487.649 513.492 562.972 556.979C572.387 562.415 583.987 562.415 593.402 556.979C602.817 551.543 608.617 541.497 608.617 530.626L608.617 135.024L608.404 131.433C607.272 121.905 601.712 113.469 593.402 108.671C587.71 105.385 581.937 102.297 576.091 99.4062L576.091 136.54C576.092 136.58 576.092 136.621 576.092 136.661L576.092 489.263L576.037 491.107L575.929 492.436L575.658 494.091L574.953 497.074L574.518 498.404L573.325 501.197L572.457 502.825L571.86 503.801L570.125 506.215L568.145 508.439L566.517 509.958L564.103 511.775L561.527 513.294L558.109 514.813L555.18 515.681L553.091 516.061L550.108 516.386L548.969 516.386L548.929 516.384C544.138 516.441 539.337 515.231 535.044 512.753C500.013 492.527 460.739 482.855 421.651 483.737C385.911 484.607 350.376 494.3 318.421 512.752C314.651 514.929 310.487 516.127 306.284 516.348L306.284 516.328C301.014 516.675 295.665 515.483 290.936 512.753C226.356 475.461 147.151 473.945 81.192 508.738L72.3227 513.621L69.529 514.814L68.2 515.248L65.2164 515.953L63.5619 516.224L60.3885 516.387L59.2493 516.387L56.2658 516.062L54.1773 515.682L51.248 514.814L47.8305 513.295L45.2538 511.776L42.8398 509.959L41.2124 508.44L39.2324 506.216L37.4965 503.802L36.8998 502.826L36.0319 501.198L34.8385 498.404L34.4045 497.075L33.6993 494.092L33.4281 492.437L33.3196 491.108L33.2653 489.264L33.2653 136.662C33.2653 135.166 33.3887 133.686 33.6283 132.237L33.6283 98.8644Z" id="Shape-3-Subtract" fill="#2682DC" fill-rule="evenodd" stroke="#000000" stroke-width="0" stroke-linecap="round" stroke-linejoin="round" />
      <path d="M305.631 26.3898C382.636 -11.4668 473.446 -8.43723 547.756 34.4675C554.781 38.5234 559.481 45.655 560.438 53.7099L560.618 56.7455L560.618 132.891C560.618 132.93 560.619 132.968 560.619 133.007L560.619 467.433L560.567 469.182L560.464 470.443L560.207 472.012L559.538 474.842L559.126 476.102L557.995 478.752L557.171 480.295L556.605 481.221L554.959 483.511L553.081 485.62L551.538 487.061L549.248 488.785L546.804 490.225L543.563 491.666L540.784 492.489L538.804 492.849L535.974 493.158L534.893 493.158L534.856 493.156C530.312 493.21 525.758 492.062 521.687 489.712C488.461 470.529 451.212 461.355 414.138 462.192C380.241 463.016 346.538 472.21 316.23 489.711C312.654 491.775 308.705 492.912 304.718 493.122L304.718 493.102C299.72 493.432 294.647 492.302 290.161 489.712C228.91 454.342 153.788 452.905 91.2292 485.904L82.8171 490.535L80.1674 491.667L78.9069 492.078L76.0771 492.747L74.5079 493.004L71.498 493.159L70.4176 493.159L67.5878 492.85L65.607 492.49L62.8287 491.667L59.5873 490.226L57.1435 488.786L54.8539 487.062L53.3104 485.621L51.4325 483.512L49.7861 481.222L49.2201 480.296L48.3969 478.753L47.265 476.103L46.8534 474.842L46.1846 472.013L45.9273 470.443L45.8244 469.183L45.773 467.434L45.773 133.007C45.773 131.588 45.89 130.185 46.1172 128.81L46.1172 56.7458C46.1172 47.556 51.0201 39.0636 58.9792 34.4682C133.289 -8.43656 224.099 -11.4661 301.104 26.3905L303.367 27.5224L305.631 26.3905L305.631 26.3898L305.631 26.3898Z" id="Mask-2" fill="#2682DC" stroke="#000000" stroke-width="0" stroke-linecap="round" stroke-linejoin="round" />
      <g clip-path="url(#mask_1)">
        <path d="M303.184 26.3899L303.757 26.6748L303.757 493.123C299.748 492.913 295.778 491.776 292.182 489.712C230.596 454.342 155.063 452.905 92.1618 485.904L83.7037 490.535L81.0395 491.667L79.7721 492.078L76.9269 492.747L75.3491 493.004L72.3228 493.159L71.2364 493.159L68.3912 492.85L66.3995 492.49L63.606 491.667L60.3469 490.226L57.8897 488.785L55.5876 487.062L54.0357 485.621L52.1475 483.512L50.492 481.222L49.923 480.296L49.0953 478.753L47.9572 476.103L47.5433 474.842L46.8708 472.013L46.6122 470.443L46.5087 469.183L46.457 467.434L46.457 133.007C46.457 131.587 46.5746 130.184 46.8031 128.81L46.8031 56.7452C46.8031 47.5554 51.7328 39.063 59.7354 34.4676C134.452 -8.43723 225.759 -11.4668 303.184 26.3899L303.184 26.3899Z" id="Vector-4" fill="#1B6BB9" stroke="#000000" stroke-width="0" stroke-linecap="round" stroke-linejoin="round" />
      </g>
    </g>
  </g>
</svg>