<?xml version="1.0" encoding="utf-8"?>
<svg width="1024px" height="1024px" viewBox="0 0 1024 1024" version="1.1" xmlns:xlink="http://www.w3.org/1999/xlink" xmlns="http://www.w3.org/2000/svg">
  <defs>
    <path d="M1024 0L1024 0L1024 1024L0 1024L0 0L1024 0Z" id="path_1" />
    <path d="M274.16 27.8423C355.403 -12.0979 451.211 -8.90158 529.61 36.3645C537.022 40.6436 541.981 48.1677 542.991 56.6659L543.181 59.8685L543.181 140.205C543.181 140.245 543.181 140.286 543.181 140.327L543.181 493.159L543.127 495.004L543.018 496.334L542.747 497.99L542.041 500.975L541.607 502.305L540.413 505.101L539.544 506.729L538.947 507.706L537.21 510.122L535.229 512.347L533.6 513.867L531.185 515.686L528.606 517.206L525.187 518.725L522.255 519.594L520.166 519.974L517.18 520.3L516.04 520.3L516 520.298C511.207 520.355 506.402 519.143 502.107 516.664C467.052 496.425 427.753 486.747 388.639 487.629C352.876 488.499 317.318 498.199 285.342 516.663C281.569 518.841 277.403 520.041 273.197 520.261L273.197 520.241C267.924 520.589 262.572 519.396 257.839 516.664C193.217 479.348 113.96 477.831 47.958 512.647L39.0829 517.532L36.2874 518.726L34.9575 519.161L31.972 519.866L30.3164 520.138L27.1409 520.301L26.001 520.301L23.0155 519.975L20.9256 519.595L17.9944 518.726L14.5747 517.206L11.9963 515.687L9.58074 513.868L7.95229 512.348L5.971 510.123L4.23398 507.707L3.63688 506.73L2.76837 505.102L1.57418 502.306L1.13992 500.976L0.434256 497.991L0.162848 496.335L0.054285 495.005L0 493.16L0 140.328C0 138.83 0.123456 137.35 0.363182 135.899L0.363182 59.8689C0.363182 50.1733 5.53595 41.2136 13.933 36.3652C92.333 -8.90088 188.141 -12.0972 269.383 27.8429L271.772 29.0371L274.16 27.8429L274.16 27.8423L274.16 27.8423Z" id="path_2" />
    <clipPath id="clip_1">
      <use xlink:href="#path_1" />
    </clipPath>
    <clipPath id="mask_1">
      <use xlink:href="#path_2" />
    </clipPath>
  </defs>
  <g id="Icon Fore" clip-path="url(#clip_1)">
    <path d="M1024 0L1024 0L1024 1024L0 1024L0 0L1024 0Z" id="Icon-Fore" fill="#D3D3D3" fill-opacity="0" stroke="none" />
    <g id="Group-3" transform="translate(203.74951 234)">
      <path d="M307.187 102.757C398.337 57.9458 505.829 61.5319 593.79 112.318C602.105 117.119 607.669 125.561 608.802 135.095L609.015 138.689L609.015 534.549C609.015 545.427 603.211 555.479 593.79 560.919C584.369 566.359 572.761 566.359 563.339 560.92C487.967 517.404 395.105 517.404 319.733 560.92C310.312 566.359 298.704 566.359 289.282 560.92C216.78 519.053 127.858 517.351 53.8065 556.413L43.8491 561.894L40.7127 563.234L39.2206 563.721L35.871 564.513L34.0135 564.817L30.4508 565L29.1718 565L25.8223 564.635L23.4776 564.208L20.1889 563.234L16.3521 561.529L13.4592 559.823L10.7491 557.783L8.92208 556.078L6.69917 553.581L4.75033 550.871L4.08041 549.775L3.10598 547.948L1.76615 544.811L1.27893 543.319L0.487214 539.969L0.182706 538.112L0.0609044 536.62L0 534.549L0 138.689C0 127.811 5.8036 117.759 15.2247 112.319C103.186 61.5327 210.677 57.9466 301.827 102.757L304.507 104.097L307.187 102.757L307.187 102.757Z" id="Shape-3" fill="#FFFFFF" stroke="#000000" stroke-width="0" stroke-linecap="round" stroke-linejoin="round" />
      <g id="Vector-3-Mask" transform="translate(33.28703 0)">
        <path d="M274.16 27.8423C355.403 -12.0979 451.211 -8.90158 529.61 36.3645C537.022 40.6436 541.981 48.1677 542.991 56.6659L543.181 59.8685L543.181 140.205C543.181 140.245 543.181 140.286 543.181 140.327L543.181 493.159L543.127 495.004L543.018 496.334L542.747 497.99L542.041 500.975L541.607 502.305L540.413 505.101L539.544 506.729L538.947 507.706L537.21 510.122L535.229 512.347L533.6 513.867L531.185 515.686L528.606 517.206L525.187 518.725L522.255 519.594L520.166 519.974L517.18 520.3L516.04 520.3L516 520.298C511.207 520.355 506.402 519.143 502.107 516.664C467.052 496.425 427.753 486.747 388.639 487.629C352.876 488.499 317.318 498.199 285.342 516.663C281.569 518.841 277.403 520.041 273.197 520.261L273.197 520.241C267.924 520.589 262.572 519.396 257.839 516.664C193.217 479.348 113.96 477.831 47.958 512.647L39.0829 517.532L36.2874 518.726L34.9575 519.161L31.972 519.866L30.3164 520.138L27.1409 520.301L26.001 520.301L23.0155 519.975L20.9256 519.595L17.9944 518.726L14.5747 517.206L11.9963 515.687L9.58074 513.868L7.95229 512.348L5.971 510.123L4.23398 507.707L3.63688 506.73L2.76837 505.102L1.57418 502.306L1.13992 500.976L0.434256 497.991L0.162848 496.335L0.054285 495.005L0 493.16L0 140.328C0 138.83 0.123456 137.35 0.363182 135.899L0.363182 59.8689C0.363182 50.1733 5.53595 41.2136 13.933 36.3652C92.333 -8.90088 188.141 -12.0972 269.383 27.8429L271.772 29.0371L274.16 27.8429L274.16 27.8423L274.16 27.8423Z" id="Mask" fill="#2682DC" fill-rule="evenodd" stroke="#000000" stroke-width="0" stroke-linecap="round" stroke-linejoin="round" />
        <g clip-path="url(#mask_1)">
          <path d="M269.383 27.8432L269.985 28.1439L269.985 520.263C265.778 520.042 261.612 518.842 257.839 516.664C193.217 479.348 113.96 477.831 47.958 512.647L39.0829 517.532L36.2874 518.727L34.9575 519.161L31.972 519.867L30.3164 520.138L27.1409 520.301L26.001 520.301L23.0155 519.975L20.9256 519.595L17.9944 518.727L14.5747 517.207L11.9963 515.687L9.58074 513.868L7.95229 512.349L5.971 510.123L4.23398 507.707L3.63688 506.73L2.76837 505.102L1.57418 502.306L1.13992 500.977L0.434256 497.991L0.162848 496.335L0.054285 495.005L0 493.16L0 140.328C0 138.83 0.123456 137.35 0.363182 135.9L0.363182 59.8692C0.363182 50.1736 5.53595 41.2138 13.933 36.3655C92.3329 -8.9006 188.141 -12.0969 269.383 27.8432L269.383 27.8432Z" id="Vector-3" fill="#1B6BB9" fill-rule="evenodd" stroke="#000000" stroke-width="0" stroke-linecap="round" stroke-linejoin="round" />
        </g>
      </g>
    </g>
  </g>
</svg>