<?xml version="1.0" encoding="utf-8"?>
<svg width="1024px" height="1024px" viewBox="0 0 1024 1024" version="1.1" xmlns:xlink="http://www.w3.org/1999/xlink" xmlns="http://www.w3.org/2000/svg">
  <defs>
    <linearGradient gradientUnits="objectBoundingBox" x1="0.5" y1="0" x2="0.5" y2="1" id="gradient_1">
      <stop offset="0%" stop-color="#2CD8D5" />
      <stop offset="50%" stop-color="#6B8DD6" />
      <stop offset="100%" stop-color="#376CD7" />
    </linearGradient>
    <filter filterUnits="userSpaceOnUse" color-interpolation-filters="sRGB" id="filter_1">
      <feFlood flood-opacity="0" result="BackgroundImageFix" />
      <feColorMatrix in="SourceAlpha" type="matrix" values="0 0 0 0 0 0 0 0 0 0 0 0 0 0 0 0 0 0 128 0" />
      <feOffset dx="4" dy="0" />
      <feGaussianBlur stdDeviation="2" />
      <feColorMatrix type="matrix" values="0 0 0 0 0.30588236 0 0 0 0 0.30588236 0 0 0 0 0.30588236 0 0 0 0.49803922 0" />
      <feBlend mode="normal" in2="BackgroundImageFix" result="effect0_dropShadow" />
      <feBlend mode="normal" in="SourceGraphic" in2="effect0_dropShadow" result="shape" />
    </filter>
    <path d="M1024 0L1024 0L1024 1024L0 1024L0 0L1024 0Z" id="path_1" />
    <clipPath id="clip_1">
      <use xlink:href="#path_1" />
    </clipPath>
  </defs>
  <g id="Icon Fore" clip-path="url(#clip_1)">
    <path d="M1024 0L1024 0L1024 1024L0 1024L0 0L1024 0Z" id="Icon-Fore" fill="none" stroke="none" />
    <g id="Group-5" transform="translate(283.32446 234.0715)">
      <path d="M423 1.6489C438.466 1.6489 451 14.1828 451 29.6489L451 536.989C451 552.455 438.466 564.989 423 564.989L49.4761 564.989C34.01 564.989 21.4761 552.455 21.4761 536.989L21.4761 29.6489C21.4761 14.1828 34.01 1.6489 49.4761 1.6489L423 1.6489Z" id="Rectangle" fill="#FFFFFF" stroke="none" />
      <path d="M27.999 1.64911L423.001 1.64911C438.464 1.64911 447.02 11.0733 445.913 26.4971C444.647 44.154 443.45 73.4898 442.74 121.894C441.056 236.724 442.118 458.867 442.568 536.99C442.657 552.454 430.204 564.989 414.741 564.989L27.999 564.989Q27.3117 564.989 26.6252 564.955Q25.9386 564.922 25.2546 564.854Q24.5706 564.787 23.8907 564.686Q23.2108 564.585 22.5367 564.451Q21.8625 564.317 21.1958 564.15Q20.5291 563.983 19.8713 563.783Q19.2136 563.584 18.5664 563.352Q17.9193 563.121 17.2842 562.858Q16.6492 562.595 16.0279 562.301Q15.4065 562.007 14.8004 561.683Q14.1942 561.359 13.6046 561.005Q13.0151 560.652 12.4436 560.27Q11.8721 559.888 11.32 559.479Q10.7679 559.069 10.2366 558.633Q9.7053 558.197 9.19602 557.736Q8.68674 557.274 8.20072 556.788Q7.7147 556.302 7.25311 555.793Q6.79152 555.284 6.35548 554.752Q5.91944 554.221 5.50999 553.669Q5.10055 553.117 4.71868 552.545Q4.33682 551.974 3.98346 551.384Q3.63009 550.795 3.30609 550.189Q2.98208 549.582 2.6882 548.961Q2.39433 548.34 2.1313 547.705Q1.86826 547.07 1.63671 546.422Q1.40515 545.775 1.20563 545.118Q1.0061 544.46 0.839095 543.793Q0.672086 543.126 0.537993 542.452Q0.4039 541.778 0.303047 541.098Q0.202194 540.418 0.134823 539.734Q0.067452 539.05 0.033726 538.364Q0 537.677 0 536.99L0 29.6481Q0 28.9608 0.033726 28.2743Q0.067452 27.5878 0.134823 26.9037Q0.202194 26.2197 0.303047 25.5398Q0.4039 24.8599 0.537993 24.1858Q0.672086 23.5116 0.839095 22.8449Q1.0061 22.1782 1.20563 21.5204Q1.40515 20.8627 1.63671 20.2155Q1.86826 19.5684 2.1313 18.9334Q2.39433 18.2983 2.6882 17.677Q2.98208 17.0557 3.30609 16.4495Q3.63009 15.8433 3.98346 15.2537Q4.33682 14.6642 4.71868 14.0927Q5.10055 13.5212 5.50999 12.9691Q5.91944 12.4171 6.35548 11.8857Q6.79152 11.3544 7.25311 10.8451Q7.7147 10.3358 8.20072 9.84983Q8.68674 9.36381 9.19602 8.90222Q9.7053 8.44063 10.2366 8.00459Q10.7679 7.56855 11.32 7.1591Q11.8721 6.74966 12.4436 6.36779Q13.0151 5.98593 13.6046 5.63257Q14.1942 5.27921 14.8004 4.9552Q15.4065 4.63119 16.0279 4.33732Q16.6492 4.04344 17.2842 3.78041Q17.9193 3.51738 18.5664 3.28582Q19.2136 3.05426 19.8713 2.85474Q20.5291 2.65522 21.1958 2.48821Q21.8625 2.3212 22.5367 2.1871Q23.2108 2.05301 23.8907 1.95216Q24.5706 1.85131 25.2546 1.78394Q25.9386 1.71656 26.6252 1.68284Q27.3117 1.64911 27.999 1.64911L27.999 1.64911Z" id="Rectangle-3" fill="#E3E3E3" fill-rule="evenodd" stroke="none" />
      <path d="M401.524 0C416.99 0 429.524 12.5339 429.524 28L429.524 536.989C429.524 552.455 416.99 564.989 401.524 564.989L28 564.989C12.5339 564.989 0 552.455 0 536.989L0 28C0 12.5339 12.5339 0 28 0L401.524 0Z" id="Rectangle-2" fill="url(#gradient_1)" stroke="none" filter="url(#filter_1)" />
      <g id="Group-3" transform="translate(99.12071 110.68497)">
        <path d="M90.7234 67.1623C97.8771 64.386 106.327 62.0903 114.708 62.0903C122.622 62.0903 130.476 63.7783 137.211 65.8942C148.382 69.4034 156.917 83.6966 157.607 95.3851C157.945 101.108 158.386 107.172 158.948 112.444C159.067 113.559 159.157 114.617 159.222 115.621L190.385 298.17C190.385 298.17 158.562 323.324 114.455 323.324C70.3478 323.324 43.9176 343.894 43.9176 343.894L70.7834 110.163C71.1155 106.347 71.3471 102.112 71.5085 97.9762C71.965 86.2762 79.8077 71.3986 90.7234 67.1623L90.7234 67.1623Z" id="Vector-2" fill="#E3E3E3" fill-rule="evenodd" stroke="none" />
        <path d="M90.7234 67.1623C97.8772 64.386 106.327 62.0903 114.708 62.0903C122.622 62.0903 130.476 63.7783 137.211 65.8942C148.382 69.4034 136.52 83.6966 137.211 95.3851C137.549 101.108 170.319 310.199 170.319 310.199C170.319 310.199 158.562 323.324 114.455 323.324C70.3478 323.324 43.9176 343.894 43.9176 343.894L70.7834 110.163C71.1155 106.347 71.3472 102.112 71.5085 97.9762C71.965 86.2762 79.8077 71.3986 90.7234 67.1623L90.7234 67.1623Z" id="Vector-3" fill="#FFFFFF" fill-rule="evenodd" stroke="none" />
        <path d="M170.37 0L196.493 18.5309C196.493 18.5309 174.622 39.01 160.526 62.4689C146.431 85.9277 138.318 112.366 138.318 112.366L231.324 175.291L201.953 201.48C201.953 201.48 189.17 178.752 169.234 163.176C149.298 147.6 122.209 139.177 122.209 139.177L67.5647 238.896L41.6029 214.52C41.6029 214.52 61.2014 198.824 75.3412 175.291C89.4811 151.759 98.1622 120.39 98.1622 120.39L0 49.5064L26.549 25.0425C26.549 25.0425 38.6452 45.3347 60.5759 62.4689C82.5065 79.603 114.272 93.579 114.272 93.579L170.37 0Z" id="Vector-4" fill="#E3E3E3" fill-rule="evenodd" stroke="none" />
        <path d="M169.148 18.4446L195.11 18.4446L138.519 113.327L213.86 176.93L202.363 201.394L120.133 139.072L67.9745 214.434L42.0126 214.434L101.898 119.006L26.9588 49.4202L26.9587 24.9563L115.283 93.6401L169.148 18.4446L169.148 18.4446Z" id="Vector" fill="#FFFFFF" fill-rule="evenodd" stroke="none" />
      </g>
    </g>
  </g>
</svg>