<?xml version="1.0" encoding="utf-8"?>
<svg width="512px" height="512px" viewBox="0 0 512 512" version="1.1" xmlns:xlink="http://www.w3.org/1999/xlink" xmlns="http://www.w3.org/2000/svg">
  <defs>
    <linearGradient gradientUnits="objectBoundingBox" x1="0" y1="0" x2="1" y2="1" id="gradient_1">
      <stop offset="0%" stop-color="#101010" />
      <stop offset="100%" stop-color="#1A1A1A" />
    </linearGradient>
    <linearGradient gradientUnits="objectBoundingBox" x1="0.5" y1="0" x2="0.5" y2="1" id="gradient_2">
      <stop offset="0%" stop-color="#2CD8D5" />
      <stop offset="50%" stop-color="#6B8DD6" />
      <stop offset="100%" stop-color="#376CD7" />
    </linearGradient>
    <filter filterUnits="userSpaceOnUse" color-interpolation-filters="sRGB" id="filter_1">
      <feFlood flood-opacity="0" result="BackgroundImageFix" />
      <feColorMatrix in="SourceAlpha" type="matrix" values="0 0 0 0 0 0 0 0 0 0 0 0 0 0 0 0 0 0 128 0" />
      <feOffset dx="4" dy="0" />
      <feGaussianBlur stdDeviation="2" />
      <feColorMatrix type="matrix" values="0 0 0 0 0.30588236 0 0 0 0 0.30588236 0 0 0 0 0.30588236 0 0 0 0.49803922 0" />
      <feBlend mode="normal" in2="BackgroundImageFix" result="effect0_dropShadow" />
      <feBlend mode="normal" in="SourceGraphic" in2="effect0_dropShadow" result="shape" />
    </filter>
    <path d="M512 0L512 0L512 512L0 512L0 0L512 0Z" id="path_1" />
    <clipPath id="clip_1">
      <use xlink:href="#path_1" />
    </clipPath>
  </defs>
  <g id="Fav" clip-path="url(#clip_1)">
    <path d="M512 0L512 0L512 512L0 512L0 0L512 0Z" id="Fav" fill="#1A1A1A" fill-opacity="0" stroke="none" />
    <path d="M425 -3.05176e-05C473.055 -3.05176e-05 512 38.9447 512 87L512 425C512 473.055 473.055 512 425 512L87 512C38.9447 512 0 473.055 0 425L0 87C0 38.9447 38.9447 -3.05176e-05 87 -3.05176e-05L425 -3.05176e-05Z" id="Rectangle" fill="url(#gradient_1)" stroke="none" />
    <g id="Group-4" transform="translate(137 106)">
      <path d="M210.675 0.872613C226.142 0.872613 238.675 13.4065 238.675 28.8726L238.675 271C238.675 286.466 226.142 299 210.675 299L39.3655 299C23.8994 299 11.3655 286.466 11.3655 271L11.3655 28.8726C11.3655 13.4065 23.8994 0.872613 39.3655 0.872613L210.675 0.872613Z" id="Rectangle" fill="#FFFFFF" stroke="none" />
      <path d="M27.999 0.872731L210.676 0.872731C226.14 0.872731 235.918 11.7345 235.264 27.1841C234.879 36.2837 234.54 48.401 234.304 64.508C233.495 119.71 233.884 221.773 234.141 271.001C234.221 286.465 221.769 299 206.305 299L27.999 299Q27.3117 299 26.6252 298.966Q25.9386 298.933 25.2546 298.865Q24.5706 298.798 23.8907 298.697Q23.2108 298.596 22.5367 298.462Q21.8625 298.328 21.1958 298.161Q20.5291 297.994 19.8713 297.794Q19.2136 297.595 18.5664 297.363Q17.9193 297.132 17.2842 296.869Q16.6492 296.606 16.0279 296.312Q15.4065 296.018 14.8004 295.694Q14.1942 295.37 13.6046 295.017Q13.0151 294.663 12.4436 294.281Q11.8721 293.899 11.32 293.49Q10.7679 293.081 10.2366 292.645Q9.7053 292.208 9.19602 291.747Q8.68674 291.285 8.20072 290.799Q7.7147 290.313 7.25311 289.804Q6.79152 289.295 6.35548 288.763Q5.91944 288.232 5.50999 287.68Q5.10055 287.128 4.71868 286.556Q4.33682 285.985 3.98346 285.395Q3.63009 284.806 3.30609 284.2Q2.98208 283.593 2.6882 282.972Q2.39433 282.351 2.1313 281.716Q1.86826 281.081 1.63671 280.434Q1.40515 279.786 1.20563 279.129Q1.0061 278.471 0.839095 277.804Q0.672086 277.137 0.537993 276.463Q0.4039 275.789 0.303047 275.109Q0.202194 274.429 0.134823 273.745Q0.067452 273.061 0.033726 272.375Q0 271.688 0 271.001L0 28.8717Q0 28.1844 0.033726 27.4979Q0.067452 26.8114 0.134823 26.1273Q0.202194 25.4433 0.303047 24.7634Q0.4039 24.0835 0.537993 23.4094Q0.672086 22.7353 0.839095 22.0685Q1.0061 21.4018 1.20563 20.744Q1.40515 20.0863 1.63671 19.4391Q1.86826 18.792 2.1313 18.157Q2.39433 17.522 2.6882 16.9006Q2.98208 16.2793 3.30609 15.6731Q3.63009 15.0669 3.98346 14.4774Q4.33682 13.8878 4.71868 13.3163Q5.10055 12.7448 5.50999 12.1927Q5.91944 11.6407 6.35548 11.1094Q6.79152 10.578 7.25311 10.0688Q7.7147 9.55947 8.20072 9.07345Q8.68674 8.58743 9.19602 8.12584Q9.7053 7.66425 10.2366 7.22821Q10.7679 6.79217 11.32 6.38272Q11.8721 5.97328 12.4436 5.59141Q13.0151 5.20955 13.6046 4.85619Q14.1942 4.50282 14.8004 4.17882Q15.4065 3.85481 16.0279 3.56093Q16.6492 3.26706 17.2842 3.00403Q17.9193 2.74099 18.5664 2.50944Q19.2136 2.27788 19.8713 2.07836Q20.5291 1.87883 21.1958 1.71183Q21.8625 1.54482 22.5367 1.41072Q23.2108 1.27663 23.8907 1.17578Q24.5706 1.07492 25.2546 1.00755Q25.9386 0.940183 26.6252 0.906457Q27.3117 0.872731 27.999 0.872731L27.999 0.872731Z" id="Rectangle-3" fill="#E3E3E3" fill-rule="evenodd" stroke="none" />
      <path d="M199.31 0C214.776 0 227.31 12.5339 227.31 28L227.31 271C227.31 286.466 214.776 299 199.31 299L28 299C12.5339 299 0 286.466 0 271L0 28C0 12.5339 12.5339 0 28 0L199.31 0Z" id="Rectangle-2" fill="url(#gradient_2)" stroke="none" filter="url(#filter_1)" />
      <g id="Group-3" transform="translate(52.45611 58.576027)">
        <path d="M48.0121 35.5432C51.7979 34.0739 56.2695 32.859 60.7051 32.859C64.8933 32.859 69.0494 33.7524 72.6139 34.8721C78.5256 36.7293 83.0424 44.2934 83.4078 50.4791C83.5867 53.5076 83.8202 56.7168 84.1175 59.5069C84.1803 60.097 84.2281 60.657 84.2627 61.188L100.754 157.796C100.754 157.796 83.913 171.107 60.571 171.107C37.229 171.107 23.2418 181.994 23.2418 181.994L37.4595 58.2998C37.6353 56.28 37.7579 54.0391 37.8433 51.8503C38.0849 45.6586 42.2353 37.7851 48.0121 35.5432L48.0121 35.5432Z" id="Vector-2" fill="#E3E3E3" fill-rule="evenodd" stroke="none" />
        <path d="M48.0121 35.5432C51.798 34.0739 56.2695 32.859 60.7051 32.859C64.8933 32.859 69.0495 33.7524 72.614 34.8721C78.5257 36.7293 72.2485 44.2934 72.614 50.4791C72.7928 53.5076 90.1354 164.162 90.1354 164.162C90.1354 164.162 83.9131 171.107 60.5711 171.107C37.2291 171.107 23.2418 181.994 23.2418 181.994L37.4596 58.2998C37.6353 56.28 37.7579 54.0391 37.8433 51.8503C38.0849 45.6586 42.2354 37.7851 48.0121 35.5432L48.0121 35.5432Z" id="Vector-3" fill="#FFFFFF" fill-rule="evenodd" stroke="none" />
        <path d="M90.162 0L103.987 9.8068C103.987 9.8068 92.4122 20.6447 84.9526 33.0594C77.4931 45.4741 73.1998 59.4657 73.1998 59.4657L122.42 92.7667L106.877 106.626C106.877 106.626 100.111 94.5981 89.5609 86.3551C79.0104 78.1122 64.6745 73.6543 64.6745 73.6543L35.7562 126.427L22.0168 113.527C22.0168 113.527 32.3886 105.22 39.8716 92.7666C47.3546 80.3128 51.9488 63.7119 51.9488 63.7119L0 26.1995L14.0501 13.2529C14.0501 13.2529 20.4516 23.9918 32.0576 33.0594C43.6636 42.127 60.4742 49.5233 60.4742 49.5233L90.162 0Z" id="Vector-4" fill="#E3E3E3" fill-rule="evenodd" stroke="none" />
        <path d="M89.5153 9.76114L103.255 9.76114L73.3061 59.9743L113.178 93.634L107.093 106.581L63.576 73.5988L35.9728 113.481L22.2335 113.481L53.9256 62.9797L14.2668 26.1538L14.2668 13.2072L61.0091 49.5556L89.5153 9.76114L89.5153 9.76114Z" id="Vector" fill="#FFFFFF" fill-rule="evenodd" stroke="none" />
      </g>
    </g>
  </g>
</svg>