<?xml version="1.0" encoding="utf-8"?>
<svg width="512px" height="512px" viewBox="0 0 512 512" version="1.1" xmlns:xlink="http://www.w3.org/1999/xlink" xmlns="http://www.w3.org/2000/svg">
  <defs>
    <path d="M512 0L512 0L512 512L0 512L0 0L512 0Z" id="path_1" />
    <path d="M385 0C455.15 0 512 56.8503 512 127L512 385C512 455.15 455.15 512 385 512L127 512C56.8503 512 0 455.15 0 385L0 127C0 56.8503 56.8503 0 127 0L385 0Z" id="path_2" />
    <path d="M153.336 15.572C198.774 -6.76624 252.358 -4.97859 296.207 20.3384C300.352 22.7317 303.126 26.9398 303.69 31.6928L303.797 33.484L303.797 78.4155C303.797 78.4382 303.797 78.4609 303.797 78.4837L303.797 275.82L303.767 276.852L303.706 277.596L303.554 278.522L303.159 280.192L302.916 280.935L302.249 282.499L301.763 283.41L301.429 283.956L300.457 285.307L299.349 286.552L298.438 287.402L297.087 288.419L295.645 289.269L293.733 290.119L292.093 290.605L290.924 290.817L289.255 290.999L288.617 290.999L288.595 290.998C285.914 291.03 283.227 290.353 280.824 288.966C261.219 277.647 239.239 272.234 217.363 272.727C197.361 273.214 177.473 278.639 159.59 288.965C157.48 290.184 155.149 290.855 152.797 290.978L152.797 290.967C149.848 291.161 146.854 290.494 144.207 288.966C108.065 268.096 63.7371 267.247 26.8225 286.719L21.8588 289.452L20.2953 290.12L19.5515 290.362L17.8817 290.757L16.9557 290.909L15.1797 291L14.5421 291L12.8724 290.818L11.7035 290.605L10.0641 290.12L8.1515 289.27L6.70943 288.419L5.35843 287.402L4.44765 286.552L3.33953 285.308L2.36803 283.957L2.03408 283.41L1.54833 282.499L0.880424 280.936L0.637548 280.192L0.242876 278.522L0.0910797 277.596L0.0303612 276.853L0 275.82L0 78.4842C0 77.6465 0.0690479 76.8186 0.203125 76.0074L0.203125 33.4842C0.203125 28.0615 3.09621 23.0504 7.79264 20.3388C51.6411 -4.97819 105.226 -6.76585 150.664 15.5723L152 16.2402L153.336 15.5723L153.336 15.572L153.336 15.572Z" id="path_3" />
    <clipPath id="clip_1">
      <use xlink:href="#path_1" />
    </clipPath>
    <clipPath id="mask_1">
      <use xlink:href="#path_2" />
    </clipPath>
    <clipPath id="mask_2">
      <use xlink:href="#path_3" />
    </clipPath>
  </defs>
  <g id="fav" clip-path="url(#clip_1)">
    <path d="M512 0L512 0L512 512L0 512L0 0L512 0Z" id="fav" fill="#59ADFF" fill-opacity="0" stroke="none" />
    <g id="Rectangle-2-Mask">
      <path d="M385 0C455.15 0 512 56.8503 512 127L512 385C512 455.15 455.15 512 385 512L127 512C56.8503 512 0 455.15 0 385L0 127C0 56.8503 56.8503 0 127 0L385 0Z" id="Mask" fill="#59ADFF" stroke="none" />
      <g clip-path="url(#mask_1)">
        <path d="M395.557 691.313L93.5863 399.703L395.557 156L674.115 402.857L395.557 691.313Z" id="Rectangle-2" fill="#52A7F9" fill-rule="evenodd" stroke="none" />
      </g>
    </g>
    <g id="Group-2" transform="translate(86.38281 92)">
      <path d="M171.807 57.4711C222.787 32.4087 282.906 34.4144 332.102 62.8188C336.752 65.5039 339.864 70.2253 340.498 75.5579L340.617 77.5675L340.617 298.969C340.617 305.053 337.371 310.675 332.102 313.718C326.833 316.76 320.341 316.76 315.071 313.718C272.916 289.38 220.979 289.38 178.824 313.718C173.555 316.76 167.063 316.76 161.793 313.718C121.243 290.302 71.5099 289.351 30.0936 311.197L24.5245 314.263L22.7703 315.012L21.9358 315.285L20.0624 315.728L19.0235 315.898L17.0309 316L16.3156 316L14.4422 315.796L13.1308 315.557L11.2915 315.012L9.14558 314.059L7.52765 313.105L6.0119 311.964L4.99005 311.01L3.74679 309.614L2.65682 308.098L2.28214 307.485L1.73715 306.463L0.987793 304.709L0.715298 303.874L0.272495 302.001L0.102186 300.962L0.0340634 300.127L0 298.969L0 77.5678C0 71.4838 3.24591 65.8616 8.51507 62.8192C57.7109 34.4148 117.83 32.4092 168.81 57.4715L170.308 58.2209L171.807 57.4715L171.807 57.4711Z" id="Shape-3" fill="#FFFFFF" stroke="#000000" stroke-width="0" stroke-linecap="round" stroke-linejoin="round" />
      <g id="Vector-3-Mask" transform="translate(18.617188 0)">
        <path d="M153.336 15.572C198.774 -6.76624 252.358 -4.97859 296.207 20.3384C300.352 22.7317 303.126 26.9398 303.69 31.6928L303.797 33.484L303.797 78.4155C303.797 78.4382 303.797 78.4609 303.797 78.4837L303.797 275.82L303.767 276.852L303.706 277.596L303.554 278.522L303.159 280.192L302.916 280.935L302.249 282.499L301.763 283.41L301.429 283.956L300.457 285.307L299.349 286.552L298.438 287.402L297.087 288.419L295.645 289.269L293.733 290.119L292.093 290.605L290.924 290.817L289.255 290.999L288.617 290.999L288.595 290.998C285.914 291.03 283.227 290.353 280.824 288.966C261.219 277.647 239.239 272.234 217.363 272.727C197.361 273.214 177.473 278.639 159.59 288.965C157.48 290.184 155.149 290.855 152.797 290.978L152.797 290.967C149.848 291.161 146.854 290.494 144.207 288.966C108.065 268.096 63.7371 267.247 26.8225 286.719L21.8588 289.452L20.2953 290.12L19.5515 290.362L17.8817 290.757L16.9557 290.909L15.1797 291L14.5421 291L12.8724 290.818L11.7035 290.605L10.0641 290.12L8.1515 289.27L6.70943 288.419L5.35843 287.402L4.44765 286.552L3.33953 285.308L2.36803 283.957L2.03408 283.41L1.54833 282.499L0.880424 280.936L0.637548 280.192L0.242876 278.522L0.0910797 277.596L0.0303612 276.853L0 275.82L0 78.4842C0 77.6465 0.0690479 76.8186 0.203125 76.0074L0.203125 33.4842C0.203125 28.0615 3.09621 23.0504 7.79264 20.3388C51.6411 -4.97819 105.226 -6.76585 150.664 15.5723L152 16.2402L153.336 15.5723L153.336 15.572L153.336 15.572Z" id="Mask" fill="#2682DC" fill-rule="evenodd" stroke="#000000" stroke-width="0" stroke-linecap="round" stroke-linejoin="round" />
        <g clip-path="url(#mask_2)">
          <path d="M150.664 15.5723L151 15.7405L151 290.979C148.648 290.855 146.317 290.184 144.207 288.966C108.065 268.095 63.7371 267.247 26.8225 286.719L21.8588 289.452L20.2953 290.12L19.5515 290.362L17.8817 290.757L16.9557 290.909L15.1797 291L14.5421 291L12.8724 290.818L11.7035 290.605L10.0641 290.12L8.1515 289.27L6.70943 288.419L5.35843 287.402L4.44765 286.552L3.33953 285.308L2.36803 283.957L2.03408 283.41L1.54833 282.499L0.880424 280.936L0.637548 280.192L0.242876 278.522L0.0910797 277.596L0.0303612 276.853L0 275.82L0 78.4842C0 77.6464 0.0690479 76.8185 0.203125 76.0074L0.203125 33.4842C0.203125 28.0615 3.09621 23.0504 7.79264 20.3388C51.6411 -4.97822 105.226 -6.76588 150.664 15.5723L150.664 15.5723Z" id="Vector-3" fill="#1B6BB9" fill-rule="evenodd" stroke="#000000" stroke-width="0" stroke-linecap="round" stroke-linejoin="round" />
        </g>
      </g>
    </g>
  </g>
</svg>